<svg width="99" height="98" viewBox="0 0 99 98" fill="none" xmlns="http://www.w3.org/2000/svg">
<g clip-path="url(#clip0_8:230)">
<path d="M97.9782 57.096L91.7273 34.7742C90.5203 30.461 87.5372 26.8249 83.5427 24.7977C79.5481 22.7703 74.8517 22.5092 70.6572 24.082C67.5905 25.233 64.9862 27.2561 63.1277 29.931C63.1277 29.931 63.1189 29.9381 63.1009 29.9381H35.9964C35.9801 29.9381 35.9715 29.9324 35.9707 29.9324C34.1127 27.2563 31.5092 25.2331 28.4406 24.0816C24.2459 22.51 19.5492 22.7705 15.5549 24.7979C11.5614 26.8249 8.57852 30.461 7.37151 34.7738L1.12055 57.0958C-0.944535 64.4675 2.27914 71.5895 8.786 74.0311C10.4237 74.6451 12.1448 74.9349 13.8608 74.9349C19.4429 74.9347 24.9625 71.8675 27.3174 66.9236L30.3168 60.6466C32.165 63.1227 35.11 64.6589 38.3065 64.6589C42.6657 64.6589 46.4862 61.815 47.7924 57.7503H51.2955C52.6015 61.815 56.4208 64.6589 60.7793 64.6589C63.9775 64.6589 66.9239 63.1209 68.7717 60.6432L71.7783 66.9213C73.2942 70.1036 75.9293 72.5833 79.198 73.9031C82.4668 75.223 86.0852 75.2686 89.3869 74.0309C92.688 72.7925 95.3841 70.3789 96.9787 67.2348C98.5729 64.0916 98.928 60.491 97.9782 57.096ZM93.3818 65.4105C92.2448 67.6517 90.3231 69.3723 87.9707 70.2549C85.6176 71.1367 83.0382 71.1043 80.708 70.1636C78.378 69.2226 76.4997 67.4553 75.4173 65.1832L71.2248 56.4284C70.7631 55.4643 69.7743 54.8805 68.7058 54.9345C67.6414 54.9909 66.7238 55.6758 66.3684 56.6791C65.5319 59.04 63.2858 60.6261 60.7795 60.6261C57.952 60.6261 55.5057 58.6164 54.963 55.8471C54.7211 54.6131 53.6343 53.7173 52.3789 53.7173H46.71C45.4543 53.7173 44.3675 54.6131 44.1254 55.8475C43.5828 58.6164 41.1354 60.6261 38.3066 60.6261C35.8009 60.6261 33.5552 59.0405 32.7181 56.6805C32.3623 55.6769 31.4443 54.9923 30.3795 54.9362C29.3124 54.879 28.3221 55.4674 27.8612 56.4322L23.6778 65.1868C21.4987 69.7612 15.2021 72.1293 10.2026 70.2549C5.63105 68.5397 3.4938 63.5757 5.00419 58.1834L11.2553 35.8608C12.1722 32.5849 14.3473 29.9331 17.3805 28.3936C19.0988 27.5216 20.9426 27.0823 22.7973 27.0823C24.2172 27.0823 25.6438 27.3396 27.0248 27.8573C29.3216 28.7194 31.2698 30.2321 32.6582 32.2321C33.4143 33.3206 34.6623 33.9705 35.9964 33.9705H63.1007C64.4346 33.9705 65.6822 33.3212 66.4379 32.2335C67.8284 30.2323 69.7775 28.719 72.0735 27.8573C75.2585 26.6633 78.6835 26.8536 81.7177 28.3933C84.7513 29.9327 86.9268 32.5847 87.8436 35.8608L94.0944 58.1826C94.7718 60.6028 94.5184 63.1696 93.3818 65.4105Z" fill="#3E71D7"/>
<path d="M76.4812 38.3816C77.8882 38.3816 79.0288 37.241 79.0288 35.834C79.0288 34.427 77.8882 33.2864 76.4812 33.2864C75.0742 33.2864 73.9336 34.427 73.9336 35.834C73.9336 37.241 75.0742 38.3816 76.4812 38.3816Z" fill="#3E71D7"/>
<path d="M76.4812 50.4117C77.8883 50.4117 79.029 49.271 79.029 47.8639C79.029 46.4568 77.8883 45.3161 76.4812 45.3161C75.074 45.3161 73.9333 46.4568 73.9333 47.8639C73.9333 49.271 75.074 50.4117 76.4812 50.4117Z" fill="#3E71D7"/>
<path d="M70.4662 44.3968C71.8733 44.3968 73.014 43.2561 73.014 41.849C73.014 40.4418 71.8733 39.3011 70.4662 39.3011C69.0591 39.3011 67.9184 40.4418 67.9184 41.849C67.9184 43.2561 69.0591 44.3968 70.4662 44.3968Z" fill="#3E71D7"/>
<path d="M82.4963 44.3968C83.9034 44.3968 85.0441 43.2561 85.0441 41.849C85.0441 40.4418 83.9034 39.3011 82.4963 39.3011C81.0892 39.3011 79.9485 40.4418 79.9485 41.849C79.9485 43.2561 81.0892 44.3968 82.4963 44.3968Z" fill="#3E71D7"/>
<path d="M28.6707 39.8321H25.1003V36.2618C25.1003 35.1482 24.1977 34.2453 23.0839 34.2453C21.9703 34.2453 21.0674 35.148 21.0674 36.2618V39.8321H17.4971C16.3835 39.8321 15.4806 40.7348 15.4806 41.8486C15.4806 42.9622 16.3833 43.865 17.4971 43.865H21.0674V47.4354C21.0674 48.549 21.9701 49.4518 23.0839 49.4518C24.1975 49.4518 25.1003 48.5491 25.1003 47.4354V43.865H28.6707C29.7843 43.865 30.6871 42.9624 30.6871 41.8486C30.6869 40.7348 29.7843 39.8321 28.6707 39.8321Z" fill="#3E71D7"/>
<path d="M44.9127 39.8321H42.7069C41.5933 39.8321 40.6904 40.7348 40.6904 41.8486C40.6904 42.9622 41.5931 43.865 42.7069 43.865H44.9127C46.0263 43.865 46.9291 42.9624 46.9291 41.8486C46.9289 40.7348 46.0263 39.8321 44.9127 39.8321Z" fill="#3E71D7"/>
<path d="M56.3894 39.8321H54.1836C53.07 39.8321 52.1672 40.7348 52.1672 41.8486C52.1672 42.9622 53.0698 43.865 54.1836 43.865H56.3894C57.503 43.865 58.4059 42.9624 58.4059 41.8486C58.4059 40.7348 57.503 39.8321 56.3894 39.8321Z" fill="#3E71D7"/>
<path d="M38.3067 50.6343C36.068 50.6343 34.2467 52.4556 34.2467 54.6943C34.2467 56.9331 36.068 58.7544 38.3067 58.7544C40.5455 58.7544 42.3668 56.9331 42.3668 54.6943C42.3666 52.4556 40.5454 50.6343 38.3067 50.6343ZM38.3067 55.7298C37.7359 55.7298 37.2713 55.2654 37.2713 54.6943C37.2713 54.1235 37.7357 53.6589 38.3067 53.6589C38.8776 53.6589 39.3422 54.1233 39.3422 54.6943C39.342 55.2652 38.8776 55.7298 38.3067 55.7298Z" fill="#3E71D7"/>
<path d="M60.7791 50.6343C58.5404 50.6343 56.7191 52.4556 56.7191 54.6943C56.7191 56.9331 58.5404 58.7544 60.7791 58.7544C63.0178 58.7544 64.839 56.9331 64.839 54.6943C64.839 52.4556 63.0178 50.6343 60.7791 50.6343ZM60.7791 55.7298C60.2083 55.7298 59.7438 55.2654 59.7438 54.6943C59.7438 54.1235 60.2081 53.6589 60.7791 53.6589C61.35 53.6589 61.8144 54.1233 61.8144 54.6943C61.8144 55.2652 61.35 55.7298 60.7791 55.7298Z" fill="#3E71D7"/>
</g>
<defs>
<clipPath id="clip0_8:230">
<rect x="0.5" width="98" height="98" rx="20" fill="white"/>
</clipPath>
</defs>
</svg>
