<svg width="99" height="98" viewBox="0 0 99 98" fill="none" xmlns="http://www.w3.org/2000/svg">
<path d="M22.3736 21C18.0244 21 14.4986 24.5258 14.4986 28.875V60.375C14.4986 64.7241 18.0244 68.25 22.3736 68.25H76.6264C80.9755 68.25 84.5014 64.7241 84.5014 60.375V28.875C84.5014 24.5258 80.9755 21 76.6264 21H22.3736ZM19.7486 28.875C19.7486 27.4253 20.9239 26.25 22.3736 26.25H76.6264C78.0761 26.25 79.2514 27.4253 79.2514 28.875V60.375C79.2514 61.8247 78.0761 63 76.6264 63H22.3736C20.9239 63 19.7486 61.8247 19.7486 60.375V28.875Z" fill="#3E71D7"/>
<path d="M10.125 71.75C8.67527 71.75 7.5 72.9253 7.5 74.375C7.5 75.8247 8.67527 77 10.125 77H88.875C90.3247 77 91.5 75.8247 91.5 74.375C91.5 72.9253 90.3247 71.75 88.875 71.75H10.125Z" fill="#3E71D7"/>
</svg>
