<svg id="visual" viewBox="0 0 900 450" width="900" height="450" xmlns="http://www.w3.org/2000/svg" xmlns:xlink="http://www.w3.org/1999/xlink" version="1.1"><g stroke-width="1" stroke-linejoin="bevel"><path d="M480 266L535 331L618 280Z" fill="#493d6e" stroke="#493d6e"></path><path d="M618 280L579 169L480 266Z" fill="#002233" stroke="#002233"></path><path d="M579 169L538 162L480 266Z" fill="#91437c" stroke="#91437c"></path><path d="M535 331L576 374L618 280Z" fill="#e75d5c" stroke="#e75d5c"></path><path d="M670 347L695 258L618 280Z" fill="#002233" stroke="#002233"></path><path d="M618 280L695 258L579 169Z" fill="#6d4179" stroke="#6d4179"></path><path d="M576 374L670 347L618 280Z" fill="#002233" stroke="#002233"></path><path d="M731 157L610 121L579 169Z" fill="#6d4179" stroke="#6d4179"></path><path d="M579 169L610 121L538 162Z" fill="#e75d5c" stroke="#e75d5c"></path><path d="M460 109L393 186L538 162Z" fill="#f57348" stroke="#f57348"></path><path d="M538 162L393 186L480 266Z" fill="#f88e30" stroke="#f88e30"></path><path d="M480 266L416 385L535 331Z" fill="#002233" stroke="#002233"></path><path d="M510 450L567 450L576 374Z" fill="#f88e30" stroke="#f88e30"></path><path d="M610 121L460 109L538 162Z" fill="#d14e6c" stroke="#d14e6c"></path><path d="M368 244L416 385L480 266Z" fill="#f57348" stroke="#f57348"></path><path d="M393 186L368 244L480 266Z" fill="#f88e30" stroke="#f88e30"></path><path d="M510 450L576 374L535 331Z" fill="#493d6e" stroke="#493d6e"></path><path d="M576 374L712 450L670 347Z" fill="#002233" stroke="#002233"></path><path d="M416 385L510 450L535 331Z" fill="#493d6e" stroke="#493d6e"></path><path d="M832 198L731 157L695 258Z" fill="#28365e" stroke="#28365e"></path><path d="M695 258L731 157L579 169Z" fill="#91437c" stroke="#91437c"></path><path d="M731 157L683 99L610 121Z" fill="#d14e6c" stroke="#d14e6c"></path><path d="M610 121L571 0L460 109Z" fill="#6d4179" stroke="#6d4179"></path><path d="M416 385L421 450L510 450Z" fill="#b34677" stroke="#b34677"></path><path d="M335 450L421 450L416 385Z" fill="#91437c" stroke="#91437c"></path><path d="M712 450L773 348L670 347Z" fill="#28365e" stroke="#28365e"></path><path d="M670 347L773 348L695 258Z" fill="#002233" stroke="#002233"></path><path d="M299 172L307 262L368 244Z" fill="#b34677" stroke="#b34677"></path><path d="M368 244L320 387L416 385Z" fill="#493d6e" stroke="#493d6e"></path><path d="M299 172L368 244L393 186Z" fill="#0c2d49" stroke="#0c2d49"></path><path d="M460 109L365 101L393 186Z" fill="#f57348" stroke="#f57348"></path><path d="M384 0L365 101L460 109Z" fill="#f88e30" stroke="#f88e30"></path><path d="M567 450L712 450L576 374Z" fill="#e75d5c" stroke="#e75d5c"></path><path d="M307 262L320 387L368 244Z" fill="#6d4179" stroke="#6d4179"></path><path d="M683 99L571 0L610 121Z" fill="#493d6e" stroke="#493d6e"></path><path d="M365 101L299 172L393 186Z" fill="#493d6e" stroke="#493d6e"></path><path d="M571 0L494 0L460 109Z" fill="#28365e" stroke="#28365e"></path><path d="M773 348L829 261L695 258Z" fill="#f57348" stroke="#f57348"></path><path d="M830 69L711 0L683 99Z" fill="#b34677" stroke="#b34677"></path><path d="M900 328L829 261L773 348Z" fill="#0c2d49" stroke="#0c2d49"></path><path d="M320 387L335 450L416 385Z" fill="#0c2d49" stroke="#0c2d49"></path><path d="M829 261L832 198L695 258Z" fill="#6d4179" stroke="#6d4179"></path><path d="M683 99L711 0L571 0Z" fill="#28365e" stroke="#28365e"></path><path d="M830 69L683 99L731 157Z" fill="#f88e30" stroke="#f88e30"></path><path d="M494 0L384 0L460 109Z" fill="#6d4179" stroke="#6d4179"></path><path d="M270 51L237 153L299 172Z" fill="#b34677" stroke="#b34677"></path><path d="M712 450L823 450L773 348Z" fill="#e75d5c" stroke="#e75d5c"></path><path d="M829 261L900 244L832 198Z" fill="#e75d5c" stroke="#e75d5c"></path><path d="M270 51L299 172L365 101Z" fill="#002233" stroke="#002233"></path><path d="M299 172L210 252L307 262Z" fill="#6d4179" stroke="#6d4179"></path><path d="M307 262L200 338L320 387Z" fill="#0c2d49" stroke="#0c2d49"></path><path d="M320 387L232 450L335 450Z" fill="#f57348" stroke="#f57348"></path><path d="M237 153L210 252L299 172Z" fill="#f57348" stroke="#f57348"></path><path d="M832 198L830 69L731 157Z" fill="#f88e30" stroke="#f88e30"></path><path d="M900 328L900 244L829 261Z" fill="#d14e6c" stroke="#d14e6c"></path><path d="M832 198L900 74L830 69Z" fill="#b34677" stroke="#b34677"></path><path d="M384 0L270 51L365 101Z" fill="#6d4179" stroke="#6d4179"></path><path d="M823 450L900 328L773 348Z" fill="#6d4179" stroke="#6d4179"></path><path d="M900 244L900 194L832 198Z" fill="#493d6e" stroke="#493d6e"></path><path d="M210 252L200 338L307 262Z" fill="#f88e30" stroke="#f88e30"></path><path d="M200 338L232 450L320 387Z" fill="#e75d5c" stroke="#e75d5c"></path><path d="M900 0L821 0L830 69Z" fill="#e75d5c" stroke="#e75d5c"></path><path d="M830 69L821 0L711 0Z" fill="#d14e6c" stroke="#d14e6c"></path><path d="M119 192L131 270L210 252Z" fill="#002233" stroke="#002233"></path><path d="M210 252L131 270L200 338Z" fill="#b34677" stroke="#b34677"></path><path d="M270 51L221 66L237 153Z" fill="#f88e30" stroke="#f88e30"></path><path d="M267 0L221 66L270 51Z" fill="#b34677" stroke="#b34677"></path><path d="M384 0L267 0L270 51Z" fill="#6d4179" stroke="#6d4179"></path><path d="M823 450L900 450L900 328Z" fill="#f88e30" stroke="#f88e30"></path><path d="M900 194L900 74L832 198Z" fill="#d14e6c" stroke="#d14e6c"></path><path d="M119 192L210 252L237 153Z" fill="#28365e" stroke="#28365e"></path><path d="M200 338L96 450L232 450Z" fill="#e75d5c" stroke="#e75d5c"></path><path d="M131 270L120 332L200 338Z" fill="#d14e6c" stroke="#d14e6c"></path><path d="M130 57L237 153L221 66Z" fill="#f57348" stroke="#f57348"></path><path d="M130 57L119 192L237 153Z" fill="#28365e" stroke="#28365e"></path><path d="M131 270L0 304L120 332Z" fill="#002233" stroke="#002233"></path><path d="M900 74L900 0L830 69Z" fill="#6d4179" stroke="#6d4179"></path><path d="M267 0L179 0L221 66Z" fill="#b34677" stroke="#b34677"></path><path d="M179 0L130 57L221 66Z" fill="#0c2d49" stroke="#0c2d49"></path><path d="M0 304L131 270L0 180Z" fill="#28365e" stroke="#28365e"></path><path d="M0 348L96 450L120 332Z" fill="#91437c" stroke="#91437c"></path><path d="M120 332L96 450L200 338Z" fill="#91437c" stroke="#91437c"></path><path d="M179 0L107 0L130 57Z" fill="#d14e6c" stroke="#d14e6c"></path><path d="M0 180L131 270L119 192Z" fill="#28365e" stroke="#28365e"></path><path d="M0 180L119 192L0 96Z" fill="#f88e30" stroke="#f88e30"></path><path d="M0 96L119 192L130 57Z" fill="#f88e30" stroke="#f88e30"></path><path d="M0 304L0 348L120 332Z" fill="#28365e" stroke="#28365e"></path><path d="M107 0L0 96L130 57Z" fill="#f88e30" stroke="#f88e30"></path><path d="M0 348L0 450L96 450Z" fill="#e75d5c" stroke="#e75d5c"></path><path d="M107 0L0 0L0 96Z" fill="#e75d5c" stroke="#e75d5c"></path></g></svg>