<?xml version="1.0" encoding="iso-8859-1"?>
<!-- Generator: Adobe Illustrator 19.0.0, SVG Export Plug-In . SVG Version: 6.00 Build 0)  -->
<svg version="1.1" id="Layer_1" xmlns="http://www.w3.org/2000/svg" xmlns:xlink="http://www.w3.org/1999/xlink" x="0px" y="0px"
	 viewBox="0 0 489.866 489.866" style="enable-background:new 0 0 489.866 489.866;" xml:space="preserve">
<g>
	<g>
		<g>
			<path d="M348.265,84.226v-0.03c-8.443,0-15.308-6.866-15.308-15.308V30.617C332.956,13.735,319.221,0,302.34,0H164.572
				c-16.882,0-30.617,13.735-30.617,30.617l-0.008,38.271c0,8.443-6.866,15.308-15.308,15.308v0.03
				c-25.376,0.324-45.925,21.041-45.925,46.489v228.436c0,25.448,20.549,46.165,45.925,46.489v0.03
				c8.443,0,15.308,6.865,15.308,15.308l0.008,38.271c0,16.882,13.735,30.617,30.617,30.617H302.34
				c16.882,0,30.617-13.735,30.617-30.617v-38.271c0-8.443,6.866-15.308,15.308-15.308v-0.03
				c25.374-0.323,45.925-21.04,45.925-46.489V130.715C394.19,105.266,373.639,84.549,348.265,84.226z M149.256,68.888l0.008-38.271
				c0-8.443,6.866-15.308,15.308-15.308H302.34c8.443,0,15.308,6.866,15.308,15.308v38.271c0,5.601,1.622,10.787,4.259,15.308
				h-176.91C147.634,79.674,149.256,74.489,149.256,68.888z M317.649,420.979v38.271h-0.001c0,8.443-6.866,15.308-15.308,15.308
				H164.572c-8.443,0-15.308-6.866-15.308-15.308l-0.007-38.271c0-5.601-1.622-10.787-4.259-15.308h176.91
				C319.271,410.193,317.649,415.378,317.649,420.979z M378.881,359.152c0,17.211-14,31.211-31.211,31.211H119.238
				c-17.211,0-31.215-14-31.215-31.211V130.715c0-17.211,14.004-31.211,31.215-31.211H347.67c17.211,0,31.211,14,31.211,31.211
				V359.152z"/>
			<rect x="401.844" y="168.392" width="15.308" height="61.233"/>
			<rect x="401.844" y="260.242" width="15.308" height="61.233"/>
			<rect x="164.565" y="420.979" width="137.775" height="15.308"/>
			<rect x="164.565" y="53.579" width="137.775" height="15.308"/>
			<path d="M233.452,199.008c-25.325,0-45.925,20.601-45.925,45.925c0,25.325,20.6,45.925,45.925,45.925s45.925-20.6,45.925-45.925
				C279.377,219.609,258.777,199.008,233.452,199.008z M233.452,275.55c-16.882,0-30.617-13.735-30.617-30.617
				s13.735-30.617,30.617-30.617c16.882,0,30.617,13.735,30.617,30.617S250.334,275.55,233.452,275.55z"/>
			<path d="M287.031,199.008c12.662,0,22.962-10.3,22.962-22.962c0-12.662-10.3-22.963-22.962-22.963
				c-12.662,0-22.963,10.3-22.963,22.963C264.069,188.708,274.369,199.008,287.031,199.008z M287.031,168.392
				c4.219,0,7.654,3.435,7.654,7.654c0,4.219-3.435,7.654-7.654,7.654c-4.22,0-7.654-3.435-7.654-7.654
				C279.377,171.826,282.812,168.392,287.031,168.392z"/>
			<path d="M172.219,214.317c0-12.662-10.3-22.962-22.962-22.962c-12.662,0-22.962,10.3-22.962,22.962
				c0,12.662,10.3,22.962,22.962,22.962C161.919,237.279,172.219,226.979,172.219,214.317z M141.602,214.317
				c0-4.219,3.435-7.654,7.654-7.654c4.22,0,7.654,3.435,7.654,7.654c0,4.219-3.435,7.654-7.654,7.654
				C145.037,221.971,141.602,218.536,141.602,214.317z"/>
			<path d="M325.302,214.317c-16.882,0-30.617,13.735-30.617,30.617c0,16.882,13.735,30.617,30.617,30.617
				s30.617-13.735,30.617-30.617C355.919,228.052,342.184,214.317,325.302,214.317z M325.302,260.242
				c-8.443,0-15.308-6.865-15.308-15.308s6.866-15.308,15.308-15.308c8.443,0,15.308,6.866,15.308,15.308
				C340.61,253.376,333.745,260.242,325.302,260.242z"/>
			<path d="M218.144,306.167c-16.882,0-30.617,13.735-30.617,30.617c0,16.882,13.735,30.617,30.617,30.617
				c16.882,0,30.617-13.735,30.617-30.617C248.76,319.902,235.026,306.167,218.144,306.167z M218.144,352.092
				c-8.443,0-15.308-6.866-15.308-15.308c0-8.443,6.866-15.308,15.308-15.308c8.443,0,15.308,6.866,15.308,15.308
				S226.587,352.092,218.144,352.092z"/>
			<path d="M233.452,160.738c0-16.882-13.735-30.617-30.617-30.617c-16.882,0-30.617,13.735-30.617,30.617
				c0,16.882,13.735,30.617,30.617,30.617C219.717,191.355,233.452,177.619,233.452,160.738z M187.527,160.738
				c0-8.443,6.866-15.308,15.308-15.308c8.443,0,15.308,6.865,15.308,15.308s-6.866,15.308-15.308,15.308
				C194.393,176.046,187.527,169.18,187.527,160.738z"/>
			<path d="M156.91,267.896c-12.662,0-22.962,10.3-22.962,22.962s10.3,22.963,22.962,22.963c12.662,0,22.963-10.3,22.963-22.963
				C179.873,278.196,169.573,267.896,156.91,267.896z M156.91,298.513c-4.219,0-7.654-3.435-7.654-7.654s3.435-7.654,7.654-7.654
				c4.22,0,7.654,3.435,7.654,7.654C164.565,295.078,161.13,298.513,156.91,298.513z"/>
			<path d="M287.031,283.204c-12.662,0-22.963,10.3-22.963,22.962c0,12.662,10.3,22.962,22.963,22.962
				c12.662,0,22.962-10.3,22.962-22.962C309.994,293.504,299.694,283.204,287.031,283.204z M287.031,313.821
				c-4.22,0-7.654-3.435-7.654-7.654c0-4.22,3.435-7.654,7.654-7.654s7.654,3.435,7.654,7.654S291.251,313.821,287.031,313.821z"/>
		</g>
	</g>
</g>
<g>
</g>
<g>
</g>
<g>
</g>
<g>
</g>
<g>
</g>
<g>
</g>
<g>
</g>
<g>
</g>
<g>
</g>
<g>
</g>
<g>
</g>
<g>
</g>
<g>
</g>
<g>
</g>
<g>
</g>
</svg>
