<?xml version="1.0" encoding="iso-8859-1"?>
<!-- Generator: Adobe Illustrator 17.1.0, SVG Export Plug-In . SVG Version: 6.00 Build 0)  -->
<!DOCTYPE svg PUBLIC "-//W3C//DTD SVG 1.1//EN" "http://www.w3.org/Graphics/SVG/1.1/DTD/svg11.dtd">
<svg version="1.1" id="Capa_1" xmlns="http://www.w3.org/2000/svg" xmlns:xlink="http://www.w3.org/1999/xlink" x="0px" y="0px"
	 viewBox="0 0 465 465" style="enable-background:new 0 0 465 465;" xml:space="preserve">
<g>
	<path d="M434.276,57.368H30.723C13.782,57.368,0,71.15,0,88.092v288.816c0,16.941,13.782,30.724,30.723,30.724h403.553
		c16.941,0,30.724-13.782,30.724-30.724V88.092C465,71.15,451.218,57.368,434.276,57.368z M450,376.908
		c0,8.67-7.054,15.724-15.724,15.724H30.723c-8.67,0-15.723-7.054-15.723-15.724V88.092c0-8.67,7.053-15.724,15.723-15.724h403.553
		c8.67,0,15.724,7.054,15.724,15.724V376.908z"/>
	<path d="M397.5,117.368h-330c-4.142,0-7.5,3.357-7.5,7.5v215.264c0,4.143,3.358,7.5,7.5,7.5h330c4.143,0,7.5-3.357,7.5-7.5V124.868
		C405,120.726,401.643,117.368,397.5,117.368z M390,332.632H75V132.368h315V332.632z"/>
	<path d="M232.5,102.704c4.411,0,8-3.589,8-8s-3.589-8-8-8s-8,3.589-8,8S228.089,102.704,232.5,102.704z"/>
	<path d="M240.09,362.632h-15.18c-4.142,0-7.5,3.357-7.5,7.5s3.358,7.5,7.5,7.5h15.18c4.143,0,7.5-3.357,7.5-7.5
		S244.232,362.632,240.09,362.632z"/>
</g>
<g>
</g>
<g>
</g>
<g>
</g>
<g>
</g>
<g>
</g>
<g>
</g>
<g>
</g>
<g>
</g>
<g>
</g>
<g>
</g>
<g>
</g>
<g>
</g>
<g>
</g>
<g>
</g>
<g>
</g>
</svg>
