<svg id="visual" viewBox="0 0 900 300" width="900" height="300" xmlns="http://www.w3.org/2000/svg" xmlns:xlink="http://www.w3.org/1999/xlink" version="1.1"><rect x="0" y="0" width="900" height="300" fill="#002233"></rect><path d="M0 108L15 109.3C30 110.7 60 113.3 90 104.5C120 95.7 150 75.3 180 71.3C210 67.3 240 79.7 270 88C300 96.3 330 100.7 360 101C390 101.3 420 97.7 450 94.2C480 90.7 510 87.3 540 82.5C570 77.7 600 71.3 630 72.5C660 73.7 690 82.3 720 91.7C750 101 780 111 810 105.7C840 100.3 870 79.7 885 69.3L900 59L900 0L885 0C870 0 840 0 810 0C780 0 750 0 720 0C690 0 660 0 630 0C600 0 570 0 540 0C510 0 480 0 450 0C420 0 390 0 360 0C330 0 300 0 270 0C240 0 210 0 180 0C150 0 120 0 90 0C60 0 30 0 15 0L0 0Z" fill="#3e71d7" stroke-linecap="round" stroke-linejoin="miter"></path></svg>